<svg id="Layer_1" data-name="Layer 1" xmlns="http://www.w3.org/2000/svg" viewBox="0 0 548.27 531.5"><defs><style>.cls-1{fill:#dadada;}.cls-2{fill:#b497a4;}</style></defs><title>cake</title><g id="swirls"><path class="cls-1" d="M444,324.3s-40.2,33-93,33c-13,0-57.3-4.3-87.7-27.3s-72.7-63-66.7-143.3S271,61,271,61s36.3-30.7,103-30.7c89.8,0,137.7,68.3,137.7,130C487,78.2,417.3,42.7,367.3,42.7s-82,21.3-82,21.3S241.6,86.7,220,139.3s-3.3,106-3.3,106,12,57,73.3,83,109.1,17,119.7,13.3S444,324.3,444,324.3Z" transform="translate(-196.03 -30.3)"/><path class="cls-1" d="M454.3,231.7S492.5,193.8,444,148c-23-21.7-46.3-25-46.3-25l20.7-7.3s-27-15.7-60-8-87,45.3-87,109.3,60.7,102.3,124,102.3c50.3,0,116.7-39.7,148.3-45s96-20.9,150.3,24.3c46,38.3,50.3,63,50.3,63s-15.3-62.7-71.7-86c-60.2-24.9-117.3-15-175,3.7s-94,38.3-138,27-65.7-57.7-64-91.7,31.6-57.5,52.7-72.3C393,111,489.7,149.7,454.3,231.7Z" transform="translate(-196.03 -30.3)"/><path class="cls-1" d="M447.7,363.7s-52.2,48.5-39,104.3c15.7,66.3,107.7,119,170,63.7,78.2-69.4-2.3-160.3-58-149.3-57.3,11.3-59.3,86.8-.3,80,20.2-2.3,19-25.7,19-25.7s2.4,22.4-17.7,27.7c-48.3,12.7-80-68.7-1.3-87,20.1-4.7,50.7,4,69,22.7,23.5,23.9,32,61.3,24.3,87-11.7,39-59.7,74.7-98,74.7s-112.9-32.6-118.3-97c-5.7-67,35.3-97,35.3-97Z" transform="translate(-196.03 -30.3)"/><path class="cls-1" d="M629,414.7s11.3,36.7,42,33.7c59.5-5.8,49.7-115.9-52.2-127.1-116-12.8-160.8,88.1-157.4,138.4-7,4-18.7-15.3-18.7-15.3s7.9,53.8,45.7,49.7c42.3-4.7,28-40.3,28-40.3s18.6,15.3,18,33c-.7,21-26.5,48.2-57,38.3-31.6-10.2-58.9-38.6-47.7-103C443,345.2,541,321,541,321s94.5-32.8,147.3,21.3C738.7,394,705.2,460.2,662,454.6c-16.3-2.1-35-20.3-37.7-28Z" transform="translate(-196.03 -30.3)"/></g><g id="cake"><path class="cls-2" d="M590.8,290h0v-.2c0-15.4-16.7-29.4-43.6-39.5V195.9h0c-.2-7.9-13.3-15-34.1-20V109.1c0-.4-.1-2.5-.1-2.5a8.5,8.5,0,0,0-1.7-4.3,17.58,17.58,0,0,0-3.8-3.9,43.77,43.77,0,0,0-10.6-5.8,120.08,120.08,0,0,0-24.4-6.4,205.85,205.85,0,0,0-52-1.7,180,180,0,0,0-25.3,4c-7.8,1.9-16,4.4-22.6,9.2-3.5,2.5-6.5,5.8-6.5,10.3v67.8c-20.8,5-33.9,12.1-34.1,20h0v.2h0v54.2c-27,10.2-43.6,24.1-43.6,39.5v.2h0V415.7c0,31.1,67.7,56.2,151.2,56.2s151.2-25.2,151.2-56.2V290Zm-4.9,14v97.6h0v14.2h0c0,12.6-15,25.5-41.1,35.2-28,10.4-65.4,16.2-105.2,16.2s-77.2-5.7-105.2-16.2c-26.1-9.7-41.1-22.5-41.1-35.2l.1-4.9-.1-121.1c0-12.3,14.1-24.7,38.7-34.3v41.1h0v.6h0c.5,6.4,9.4,12.2,24,16.8-12.9-8.1-19.2-15.3-19.2-17.4v-8.2h0V204.3h0v-8h0v-.4h0c.1-1.8,2.4-4.2,6.1-6.4,5.2-3.1,13.2-6.1,23.1-8.6h0v23.2c0,8.7,16,16.3,39.4,20.1-15.3-3.5-24.5-10.8-31.9-16.1-1.9-1.7-2.6-3.1-2.6-4V116c7.1,5.7,16.1,8.5,24.8,10.6-14.6-6.3-21.5-14.2-22.5-15.2a6.63,6.63,0,0,1-2.3-3.6c-.2-1.3.8-2.6,1.6-3.5a23.45,23.45,0,0,1,7.1-5,51.82,51.82,0,0,1,6-2.6,136.07,136.07,0,0,1,32.1-6.8,206.3,206.3,0,0,1,45.8.3,141,141,0,0,1,23.3,4.5,83.89,83.89,0,0,1,10.6,3.8,30.51,30.51,0,0,1,8.1,5,7.94,7.94,0,0,1,2.3,3.2,3.63,3.63,0,0,1-.9,3.3c-.6.8-8.3,9.4-21.7,15.5a52.66,52.66,0,0,1-5.6,1.9c9.9-2.1,20.4-5,28.4-11.4v88.5a7.5,7.5,0,0,1-2.6,3.5c-11.6,8.2-16.5,12.6-31.9,16.1,23.4-3.8,39.4-11.4,39.4-20.1V180.8h0c23.2,5.7,29.2,12.4,29.2,15.1a.37.37,0,0,1-.1.3v7.9l.1,57v35.2h0v.1c0,1.8-6.2,8.8-19.2,17.4,14.6-4.6,23.5-10.4,24-16.8h0V255.3c24.7,9.6,38.7,22,38.7,34.3v.2h0v1.1l.3,13.1Z" transform="translate(-196.03 -30.3)"/></g></svg>