<?xml version="1.0" encoding="utf-8"?>
<!-- Generator: Adobe Illustrator 21.0.2, SVG Export Plug-In . SVG Version: 6.00 Build 0)  -->
<svg version="1.0" id="Sweet_Bay_Cakes_copy_2" xmlns="http://www.w3.org/2000/svg" xmlns:xlink="http://www.w3.org/1999/xlink"
	 x="0px" y="0px" viewBox="0 0 844 289" enable-background="new 0 0 844 289" xml:space="preserve">
<g>
	<path d="M82,44.4c10.2-14.1,24.8-21.1,43.9-21.1c9.5,0.4,14.3,1.1,14.3,2.1c4.7,0,9.1,4.6,13.2,13.8l2.6-1.1l-1.1-5.3
		c-3.5-8.5-10.9-12.7-22.2-12.7h-6.9c-4.5,0-9.6,0.7-15.4,2.1c-22.6,7.8-33.9,17.2-33.9,28v7.4h0.6C77.8,57.7,79.3,53.3,82,44.4z"/>
	<path d="M155,50.8h-0.5l-1.6,2.1v0.6l0.6,0.5C154.4,53.7,155,52.6,155,50.8z"/>
	<path d="M49.1,136h-0.5l-0.6,0.6c0,4.9,1.1,7.4,3.2,7.4h0.6l-1.1-4.3l0.5-2.1C51.2,137.1,50.5,136.5,49.1,136z"/>
	<path d="M103.7,109.5c-3.9,0-5.8,0.5-5.8,1.6v1.6l0.5,0.5l8-1.1l2.1-4.2c-4.4-9.2-8.5-13.8-12.2-13.8h-0.5l8.5,14.9v0.5H103.7z"/>
	<path d="M126.9,93.7c0-2.2,2.5-4,7.4-5.3c20.8-12.3,31.2-24.8,31.2-37.6c0-3.8-1.6-6.6-4.8-8.5h-3.2c-4,0-10.5,4.2-19.6,12.7
		c-7.4-11.7-16.6-17.5-27.5-17.5h-4.8c-2.5,0-4.4,0.4-5.8,1.1C87.2,43.3,80.9,51.8,80.9,64c0,4.5,0.9,8.6,2.6,12.2
		c5.9,11.3,14.3,16.9,25.4,16.9h8.5c-11.5,39.5-27.2,59.3-47.1,59.3h-5.8l-7.4-1.1c-12.3-4.5-18.5-12.8-18.5-24.9
		c0-5.6,1-10.6,3.1-14.8C49,99,57.8,92.6,68.1,92.6H74c10.7,0,16.7,6.2,18,18.6l-0.6,5.8C87,128.6,80,134.4,70.3,134.4H66
		c-3.2,0-7.8-1.1-13.7-3.2h-0.5l-0.6,0.6c0,2.2,4.9,4,14.8,5.3h3.7l5.3-0.5c12.7-4.6,19.1-13.3,19.1-26v-3.7
		c-3.3-13.8-10.5-20.6-21.7-20.6h-5.3l-7.4,1.1c-16.9,7.2-25.4,18.8-25.4,34.9l1.6,10.6c5.9,14.8,15.6,22.2,29.1,22.2h6.4
		C94.7,155.1,113.2,134.6,126.9,93.7z M139.6,61.9h0.6c2.2,4.9,3.6,7.4,4.2,7.4h0.6l0.5-0.6c0-2.2-1.4-5.2-4.2-9
		c6.8-9.9,12.3-14.8,16.4-14.8h2.7c1.8,0.9,2.6,2.3,2.6,4.2v2.6c0,4.1-1.4,8.1-4.3,12.2c-6.5,10.6-16.2,18-29.1,22.3
		C132.2,77.7,135.6,69.6,139.6,61.9z M113.1,88.4l-5.3-0.6c-15.2-5.1-22.8-13.2-22.8-24.3v-4.8c3.6-12.3,10.4-18.5,20.6-18.5h5.8
		c8.7,0,17.1,5.5,25.4,16.4c-9.9,14-15.7,24.6-17.4,31.8H113.1z"/>
	<path d="M87.7,114.9v-2.1l-0.5-0.6l-7.4,1.6c-15.1,5.1-24,9.5-26.5,13.2v0.5l3.1,1.1l14.9-8C82.3,117.2,87.7,115.3,87.7,114.9z"/>
	<path d="M94.6,151.9c1.5,0,4.3-1.2,8.5-3.7c6.7-5.3,10-9.9,10-13.7v-1.1C107.1,141.2,101,147.4,94.6,151.9z"/>
	<path d="M315.8,40.2c4.8-5.3,9.6-9.1,14.2-11.5l-1.4-1.4h-0.6c-7.4,0-15.7,7.9-25,23.6c-2.7,4.9-5.2,7.4-7.4,7.4
		c-2.6,0-6.6,6.8-12.1,20.3H276l-2,2c1.6,2.4,3.4,3.9,5.4,4.7l-2.1,4.7c-6.5,10.6-15,23.2-25.5,37.7c-2.3,0.3-5,0.4-8.1,0.4h-1.4
		l0.9-1.4c4.4-3.1,6.6-5.8,6.6-8v-0.5c-0.4-4.1-1.9-6.1-4.7-6.1h-1l-3.8,0.9c-7.7,0-15.1,4.9-21.9,14.6c-2.5,0.3-5.3,0.5-8.7,0.5
		h-1.4l0.9-1.4c4.4-3.1,6.6-5.8,6.6-8v-0.5c-0.4-4.1-1.9-6.1-4.7-6.1h-1l-3.8,0.9c-8.5,0-16.5,5.9-24,17.7l0,0H182
		c-4.1,5.7-7.4,8.6-10,8.6h-2.3c6.4-11.5,9.5-19.2,9.5-22.9c-0.7-3.2-1.5-4.8-2.4-4.8h-1.9c-1.1,0.4-2,1.9-2.8,4.3h-0.4l-0.5-0.5h-1
		l-1.8,1.9v0.9c0,1.8,0.8,3,2.3,3.8c0,12.5-5.7,21.9-17.1,28.1l-0.5-3.3v-10l11.5-24.3h-6.7v-0.5l0.5-0.5l-0.9-0.9h-1.9
		c-0.6,0.3-2.4,4.2-5.3,11.5c-6.2,13.1-11.8,22-16.6,26.7h-1c0-2.8,4-14,12-33.4l-0.5-1.4v-0.5l0.5-0.5v-0.4h-5.8
		c-2.8,0-8.5,7-17.1,21l0.9,0.9l7.2-9c-4.5,9.3-6.7,15.5-6.7,18.6c0,5.1,2.5,8.4,7.6,10c1.9,0,6.4-4.5,13.4-13.4v2.4l0.9,6.2
		c0.7,1,3.1,2.9,7.2,5.7c5.4,0,10.6-4.5,15.7-13.4h3.3c3.6,0,7-2.2,10.1-6.5l1.3-0.9v5.2c1,10.4,4.5,15.6,10.3,15.6h0.9
		c3.1,0,7.7-2.2,13.7-6.6V148l-0.5-0.5l-4.7,2.3h-1c6.1-6,10.3-11.2,12.7-15.6c0-0.9-0.3-1.4-0.9-1.4c-9,12-15.3,18.2-18.9,18.4
		h-1.9c-2.5,0-3.8-1.4-3.8-4.3v-4.2l0.5-2.8c7.8-3.1,13.8-6.4,17.9-9.9h6.6c1.2,0,2.3-0.1,3.4-0.2c-1,1.5-2,3.1-2.9,4.9h0.5l0.5,0.5
		l1.4-1v5.2c1,10.4,4.5,15.6,10.3,15.6h0.9c3.1,0,7.7-2.2,13.7-6.6V148l-0.5-0.5l-4.7,2.3h-1c6.1-6,10.3-11.2,12.7-15.6
		c0-0.9-0.3-1.4-0.9-1.4c-9,12-15.3,18.2-18.9,18.4h-1.9c-2.5,0-3.8-1.4-3.8-4.3v-4.2l0.5-2.8c7.8-3.1,13.8-6.4,17.9-9.9h6.6
		c4.4,0,8-0.7,10.8-1.9c-2.2,5.5-3.7,10.3-4.5,14.5l1.4,6c-8.5,24.6-12.8,43.2-12.8,55.9l0.7,8.8c3.2,13.5,9,20.3,17.5,20.3h4.7
		c6.5,0,15.4-5.4,27-16.2c18.4-20.3,27.6-36,27.6-47.1c-2.8-10.8-5.8-16.2-8.8-16.2H309c-2.3,0-4.6,1.3-6.7,4v2.1h1.4
		c1.6-1.4,3.2-2.1,4.7-2.1h2.7c2.7,1.6,4.1,4.3,4.1,8.1v2.7c0,3.4-1.1,8.1-3.4,14.1c-17.6,31.9-34.4,47.9-50.5,47.9
		c-9,0-13.4-7.4-13.4-22.3v-5.4c0-12.6,3.4-28.9,10.1-49.1l4.1,1.3h2c4.8,0,13.6-9,26.3-26.9v-2.7h-1.4
		c-9.9,13.7-17.8,22.5-23.6,26.3h-4.1l-0.6-2v-0.6c0-3.9,9.9-25.4,29.6-64.7l31.7-2.1c2.4,0,4-0.9,4.8-2.7l-1.4-1.3h-31v-0.7
		C299.2,65.3,306.4,52.7,315.8,40.2z M244.7,115.4h1.9l0.9,1v0.9c-0.4,2.5-1.1,3.8-1.9,3.8c0-2.8-0.3-4.5-0.9-5.2V115.4z
		 M210.7,115.4h1.9l0.9,1v0.9c-0.4,2.5-1.1,3.8-1.9,3.8c0-2.8-0.3-4.5-0.9-5.2V115.4z M131.9,138.4c-1.9,4.1-3.2,7.9-3.8,11.4h-0.5
		v-1.4c0-1.4,1.3-4.9,3.8-10.5h0.4V138.4z M160.1,149.4l-0.5,0.4c-0.9,0-1.4,0.3-1.4,1h-0.9v-0.5l2.8-1.4V149.4z M190,136.7v-0.5
		l3.8-6.1h7.1C196.9,134,193.2,136.2,190,136.7z M207.5,118.8c0,6.3-3.8,9.4-11.4,9.4h-0.4c4.9-5.7,8.8-9.3,11.8-10.8V118.8z
		 M223.9,136.7v-0.5l3.8-6.1h7.1C230.8,134,227.2,136.2,223.9,136.7z M241.4,118.8c0,6.3-3.8,9.4-11.4,9.4h-0.4
		c4.9-5.7,8.8-9.3,11.8-10.8V118.8z M259.1,126.1c-1.2,0.5-2.8,1-4.6,1.3l9.3-11.7C262.1,119.4,260.5,122.8,259.1,126.1z"/>
	<polygon points="390.4,42.3 390.4,41.3 384.4,41.3 384.4,42.3 385.9,42.8 	"/>
	<path d="M436.3,90.2v0.5c7.3-5.5,11-11.8,11-18.9c0-5.5-3-10.6-9-15.5v1c2.7,4.9,4.2,9.9,4.5,15C442.8,78.3,440.6,84.3,436.3,90.2z
		"/>
	<path d="M402.9,103.7l-1.5,1.5v1.5l4.5-1v-0.5C405.8,104.4,404.9,103.9,402.9,103.7z"/>
	<polygon points="345.9,62.3 345.4,62.3 343.4,64.8 343.4,65.8 347.4,69.8 348.9,68.8 	"/>
	<path d="M368.4,154.6h0.5c1,0,1.8-1.7,2.5-5h-0.5C369.3,150.4,368.4,152,368.4,154.6z"/>
	<path d="M414.8,135.1c0,3.4-5.6,6.9-16.9,10.5c0,0.5,1,1.2,3,2c1.6,0,3.3-0.5,5-1.5c9.6-5.8,14.4-11.8,14.4-18
		c0-4.7-4.5-9.5-13.4-14.4l-0.5,0.5v0.5l0.5,0.5l-0.5,3v0.5c6.3,3.2,9.5,6.5,9.5,10v3C415.8,133.9,415.5,135.1,414.8,135.1z"/>
	<path d="M386.9,146.1h-1l-1.5,1.5l1.5,1.5h2.5C388.3,147.4,387.8,146.4,386.9,146.1z"/>
	<polygon points="400.4,111.2 399.9,110.7 398.4,112.2 398.4,112.7 398.9,112.7 400.4,111.7 	"/>
	<path d="M420.3,97.2v-0.5c12.3-5.1,18.5-12.9,18.5-23.4c0-8.9-3.5-16.2-10.5-22l5-4l-1-1c-1.2,0-3.5,1.2-7,3.5
		c-7.9-3.3-14.9-5-20.9-5h-4.5c-3.5,0-8.7,0.7-15.5,2c-4-3.7-8.5-5.5-13.4-5.5h-4.5c-4.9,0-10.1,2-15.5,6
		c-8.5,5.8-14.8,15.9-18.9,30.5v1l0.5,0.5h0.5c8.7-23.6,20.2-35.4,34.4-35.4h3.5c3.6,0,7,1.2,10.5,3.5
		c-26.6,13.9-39.9,31.6-39.9,52.9v0.5c0,9.1,4.3,14.4,13,15.9h3c2.3,0,5.6-0.8,10-2.5c16.3-12.3,24.5-27.8,24.5-46.4v-0.5
		c0-6.9-1.7-12.9-5.1-18c3.2-1.3,7.2-2,12-2h5.5c5.6,0,11.6,1.5,17.9,4.5v0.5c0,0.6-1.2,1.6-3.5,3c-13.1,14.1-21.9,26.6-26.4,37.4
		c-15.7,39.6-29.5,59.4-41.5,59.4h-4c-2.7,0-4.3-1.7-5-5v-0.5l1-5.5v-2.5c-0.4-3.4-1.9-5.1-4.5-5.1h-1c-3,0-4.8,2.5-5.5,7.5v0.5
		c1.7,9,6,13.4,13,13.4h4.5c13.9,0,28.8-14,44.5-41.9C406.7,81.5,417,62,424.8,54.8c3.7,3.2,5.5,7.6,5.5,13l-1,9
		c-4.2,12-8.5,17.9-13,17.9l-8-0.5c-2,0.7-3,1.4-3,2v3.6l1.5,1.5h2l7-2h1.5c4.6,0,7.6,5.5,9,16.4c0,3.7-0.5,7.7-1.5,12
		c-5.4,15.7-12.1,23.5-19.9,23.5h-4.5c-4.4,0-7.1-3.8-8-11.5v-2c0-7.4,3.5-14.3,10.5-21v-1.5h-1c-7.6,6.7-11.5,13.9-11.5,21.5v3.5
		c1.2,9.6,5.2,14.4,12,14.4h3.5c2.6,0,5.4-0.7,8.5-2c14-8.1,21-19,21-32.9C435.3,108.3,430.3,100.8,420.3,97.2z M386.4,66.3
		c0,5.9-1.7,12.9-5,20.9c-9.4,16.7-17.7,25-24.9,25h-4c-5,0-8-4.5-9-13.4c0-4,0.8-8.7,2.5-14c8.2-17,20.5-28.5,36.9-34.4
		c2.3,2.7,3.5,6.2,3.5,10.5V66.3z"/>
	<path d="M543.2,154.9h-5.6c-5,0-10.6,0.8-16.7,2.5h-0.5c11.9-11.2,18.3-18.6,19.3-22.2l-0.5-1.6c-8.1,10.3-14.3,17.2-18.8,20.8
		c2.9-8.2,9-21.7,18.3-40.6v-0.5l-0.5-0.5h-0.6l-0.5,0.5H532c-1,0.6-3.7,5.3-8.1,14.2h-0.5l-0.5-0.5h-1.5
		c-3.8,6.6-10.2,13.6-19.3,20.8h-1c7.4-14.5,11.1-23.6,11.1-27.4v-1c0-4.7-1.7-7.1-5.1-7.1h-1c-3.9,0-12.8,9-21.5,22.3
		c-8.5,12.8-13.8,18.1-16.4,18.1l-1-1v-1.4c0-2,5.8-14.2,17.3-36.6H484l-0.5-0.5h-2.5c0-1-0.3-1.5-1-1.5h-0.4l-2,1.5l-4-1h-3.5
		c-11.8,0-22.2,7.8-31.2,23.3l1,1l1.5-1v0.5l-0.5,4.4c1.7,11.2,3,16.8,3.9,16.8c1.7,0,2.7-0.5,3-1.4c4.5,0,9.3-4,14.4-11.9h0.5v0.5
		l-0.5,3.5l1,5.4c-2.7,12-4,20.4-4,25.3v1.9c0.6,2.1,1.3,3.9,2,5.3c-19.7,14.1-29.6,29-29.6,44.7v1c0,4.1,0.7,8.3,2.1,12.7
		c7.3,16.2,15.9,24.3,25.8,24.3c22.8,0,42.2-35.7,58.3-107c0.7-1.9,8.1-3,22.3-3.5h5.6c2.6,0,4.1,1.4,4.6,4.1
		c0,4.1-1.7,8.6-5.1,13.7v1c4.7-4.6,7.1-8.5,7.1-11.7C551.1,158.3,548,154.9,543.2,154.9z M452.9,128.5c2.1-4.6,5.4-8.6,9.9-11.9
		h0.5c-5.2,5.3-8.5,9.4-9.9,12.3h-0.5V128.5z M454.4,150.3h-0.5l7.4-9.5h0.5C461.8,141.6,459.3,144.8,454.4,150.3z M450.9,150.8h-1
		l-1-1v-4c7.9-19.8,14.5-29.7,19.8-29.7h0.5l1,1.9v2C470.2,126.8,463.7,137.1,450.9,150.8z M512.2,172.7
		c-16,61.9-32.8,92.8-50.6,92.8l-6.1-0.5c-14.2-6.4-21.3-17.1-21.3-31.9c0-15.7,9.6-30.7,28.7-44.9c1.4,1.5,3,2.3,4.8,2.3h2.4
		c2.7,0,5.5-1.5,8.5-4.5c4.9-5,8.9-9.9,12.1-14.7c2.7-1.4,5.4-2.7,8.3-4h1c-13.8,11.7-20.7,21.3-20.7,28.9c0.6,5.1,2.5,7.6,5.5,7.6
		h1.6c6.9,0,15.3-10.5,25.3-31.5h0.5V172.7z M464.2,187.1c6.5-4.7,14-9.4,22.7-13.9c-7.3,9.8-13.7,14.7-19.1,14.7
		C466.3,187.9,465.1,187.6,464.2,187.1z M509.7,163c-2.4,6.9-5.4,14-9.1,21.3c-2.5,6.8-6.6,12.4-12.2,16.7h-3.1
		c-1.3-0.5-2-1.7-2-3.6V195C483.4,186.9,492.2,176.3,509.7,163z M517.9,142.8l-1.1,4.1c-2.9,8-5.4,12.6-7.5,13.7
		c-5.7,2.4-11.1,4.7-16.2,7.2c1.8-3,3.3-6,4.4-9v-0.5l-0.5-0.5c-2.5,4.3-5,8.2-7.3,11.6c-10.6,5.2-19.8,10.5-27.5,15.9
		c-0.5-1-0.8-2.2-0.8-3.8v-2.9c0-4.1,1.3-11.8,4-23.3h2.5c4.3,0,10-6.8,17.5-18l0,0l0,0c0.7-1,1.4-2.1,2.1-3.2l1.4-2.1
		c6.6-10.3,10.7-12.5,15.9-16.4h2.5v2l-1,4.1c-2.4,2.8-3.6,4.8-3.6,6.1c-4.7,7.5-7.1,16.1-7.1,25.8c1.4,1,3.6,1.5,6.6,1.5
		c2.9,0,8.2-4.6,15.7-13.7V142.8z M518.8,134.2c0,1.3-1,3.2-3.1,5.6c-3.9,5.7-8,9.9-12.2,12.7h-2c11.1-11.3,16.7-17.6,16.7-18.8h0.5
		V134.2z"/>
	<path d="M671.1,56.6v-3l-1.5-1.5v0.5l-7.5,18.1v1l2-1.5C667.8,61.3,670.1,56.7,671.1,56.6z"/>
	<path d="M629.1,151.4c14.4-9.9,21.6-20.6,21.6-32.1c0-9.7-3.2-14.5-9.5-14.5h-2.6l-2.5,0.5c-12.2,4.9-18.8,18.1-19.6,39.6l0.5,6.5
		h-1c-5.7,0-9.1-5.2-10-15.6v-4c0-8.5,1.9-18.2,5.6-29.1v-0.5c7.6,0,17.1-2.7,28.6-8c24.7-13.1,37.1-25.9,37.1-38.1
		c-0.6-7-3.1-10.5-7.5-10.5h-3.5c-6.3,0-15.6,4.1-28.1,12c-8.8-11-18-16.5-27.5-16.5h-4.6l-5,0.5c-14.4,5.8-21.6,15.5-21.6,29.1
		c0,6.3,1.2,11.8,3.5,16.5c6.3,9.7,12.5,14.5,18.6,14.5c-3.3,9.5-5,17.5-5,24.1v4.6l1.5,10c3.8,9.7,10.3,14.5,19.6,14.5
		c0.7,8,1.9,12,3.5,12h0.5l-2-12.5C621.1,154.4,624.3,153.4,629.1,151.4z M619.5,149.3c0-8.5,2.3-17.5,7-27
		c5.1-9,9.6-13.5,13.6-13.5h2.5c3.4,0,5.4,3.2,6,9.5c0,5.3-1.7,10.6-5,16c-8,11.4-15.8,17.1-23.6,17.1h-0.5V149.3z M645.6,76.7l1-1
		v-0.5c0-1.3-2-5.8-6-13.5v-0.5c10.7-8.7,19.4-13,26-13h3c3.1,0,4.9,2.3,5.5,7c0,4.9-2.2,10.1-6.5,15.6c-15.6,16-33.6,24-54.1,24
		c1.7-6.8,9.5-17.5,23.6-32.1L645.6,76.7z M602.5,93.2c-13-4.2-19.6-11.9-19.6-23.1v-6.5c4.6-13.4,12.2-20.1,23.1-20.1h5.6
		c8,0,16.2,5,24.5,15.1c-15.9,13.6-26.1,25.3-30.6,35.1L602.5,93.2z"/>
	<path d="M658.6,87.7l-2,2v3.6l1,1h2c4.8-4.1,8.6-9.6,11.5-16.6v-1c-3,2.9-6.5,7.7-10.5,14.5h-1v-3.5H658.6z"/>
	<path d="M812.6,134.8l0.9-1.4l-0.9-0.9h-0.5l-5.5,5.1h-0.4l-2.3-16.2l0.5-3.2c3.1-1.6,4.6-3.3,4.6-5.1v-1.4l-0.9-1.4
		c-5.5,0.3-8.3,1.7-8.3,4.1l-11.8,12.2c-3.2,1-7.8,1.5-13.8,1.5h-1.4l0.9-1.4c4.4-3.1,6.6-5.8,6.6-8v-0.5c-0.4-4.1-1.9-6.1-4.7-6.1
		h-1l-3.8,0.9c-9.4,0-18.2,7.2-26.4,21.7h0.5l0.5,0.5l0.9-0.7c-6.2,8.8-11.7,15.2-16.7,19.1l-2.6-3.1l2.1-9.9
		c-0.1-3-1.7-6.1-4.7-9.4l3.6-2.1c1.2-0.7,4.1-4.9,8.8-12.5h0.6c1.2,4.2,2.4,6.3,3.6,6.3h2.1c0.9,0,1.8-1.6,2.6-4.7
		c0-4.2-1.6-6.3-4.7-6.3h-1.6c-1,0-2.6,0.7-4.7,2.1c0-2.2-0.5-3.5-1.6-3.7h-1.1c-2.5,0-7.5,3.8-15.1,11.5l6.3-13.5
		c8.7,0,16.7-1.2,24-3.6c30.5-10.5,45.8-24.6,45.8-42.2v-2.1l-0.5-4.1c-3.2-12.9-8.9-19.3-17.2-19.3h-3.1c-7.3,0-15.5,5.2-24.5,15.6
		c-3.7,6.3-6.9,9.4-9.4,9.4c-2.2,3-7,13-14.6,30.2c-5.9,4.8-8.8,8-8.8,9.4l1.6,4.7c-4.4,8.4-10.9,18.1-19.2,29.4
		c-9,11.3-14.8,17-17.4,17l-1-1v-1.4c0-2,5.8-14.2,17.3-36.6h-0.5l-0.5-0.5h-2.5c0-1-0.3-1.5-1-1.5h-0.4l-2,1.5l-4-1h-3.5
		c-11.8,0-22.2,7.8-31.2,23.3l1,1l1.5-1v0.5l-0.5,4.4c0.1,0.9,0.3,1.8,0.4,2.7c-4.8,3.4-9.7,6-14.6,7.8c-8.3,4-13.1,6-14.5,6v1.5
		c8.5,0,18.4-3.9,29.7-11.8c1.2,7.1,2.2,10.6,2.9,10.6c1.7,0,2.7-0.5,3-1.4c4.5,0,9.3-4,14.4-11.9h0.5v0.5l-0.5,3.5l1,5.4
		c-2.7,12-4,20.4-4,25.3v1.9c1.8,6.6,4.6,10,8.5,10h2.4c2.7,0,5.5-1.5,8.5-4.5c9.1-9.3,15.4-18.4,18.8-27.3v-0.5l-0.5-0.5
		c-11.7,20.2-21.4,30.2-29.2,30.2c-4.3,0-6.5-2.2-6.5-6.5v-2.9c0-4.1,1.3-11.8,4-23.3h2.5c4.7,0,19.9-16.5,28.7-30l-0.1,0.1l0.2-0.3
		l-15.1,30.7v0.6l6.3-0.6c1.4,0,4.3-5.4,8.8-16.1h0.5v0.5l-2.1,10.5v0.5h0.5c0.9-1,2.9-6.9,5.8-17.7c1.1,0.5,2.2,1.9,3.1,4.2
		c2.2,3.1,4,7.8,5.2,14c1.3,3.5,3.5,5.2,6.8,5.2c7.4,8.3,13.9,12.5,19.3,12.5c1.5,0,2.8-2.3,4.1-6.8V162h-1.1c0,2.6-1.7,4.3-5.2,5.2
		c-3.5,0-8.1-3.8-14-11.5c7.3-7.2,12.5-13.3,15.6-18.4v2.2c1,10.4,4.5,15.6,10.3,15.6h0.9c3.1,0,7.7-2.2,13.7-6.6V148l-0.5-0.5
		l-4.7,2.3h-1c6.1-6,10.3-11.2,12.7-15.6c0-0.9-0.3-1.4-0.9-1.4c-9,12-15.3,18.2-18.9,18.4h-1.9c-2.5,0-3.8-1.4-3.8-4.3v-4.2
		l0.5-2.8c7.8-3.1,13.8-6.4,17.9-9.9h6.6c2.8,0,5.3-0.3,7.4-0.8l-4,4.1v0.9h0.9l7.2-6.6c1.4-0.8,2.6-1.7,3.6-2.9v-0.4l5.8-5.4v0.9
		l-11,16.2v0.4l0.4,0.5c1-0.6,4.7-5.2,11.1-13.9c0,8.3-2.6,15.5-7.9,21.7l-1.8-1.4h-1.9c-1.8,1.1-2.8,2.5-2.8,4.1H784l-0.5-0.4
		l1.9-5.1c-0.6-1.4-1.2-2.2-1.9-2.3h-1.8c-2.8,0.5-4.1,1.7-4.1,3.7c0,3.4,2.5,5.6,7.4,6.5c1.6,3.4,3.9,5.1,6.9,5.1h1.9
		c5.2,0,12-6.3,20.3-18.9v-0.5C814,135.1,813.5,134.8,812.6,134.8z M775,115.4h1.9l0.9,1v0.9c-0.4,2.5-1.1,3.8-1.9,3.8
		c0-2.8-0.3-4.5-0.9-5.2V115.4z M746.3,61h-0.5l-0.6-0.5c10.4-14.9,19.8-22.3,28.1-22.3c11.8,2.6,17.7,9,17.7,19.2V60
		c0,6.3-2.6,12.7-7.8,19.3c-17.7,17.7-35.7,26.5-54.1,26.5h-4.2L746.3,61z M717.1,103.2c0-2,1.4-4.1,4.2-6.3
		c-2.1,5.2-3.5,7.8-4.2,7.8V103.2z M664.6,128.5c2.1-4.6,5.4-8.6,9.9-11.9h0.5c-5.2,5.3-8.5,9.4-9.9,12.3h-0.5V128.5z M666.1,150.3
		h-0.5l7.4-9.5h0.5C673.5,141.6,671.1,144.8,666.1,150.3z M662.6,150.8h-1l-1-1v-4c1.2-3,2.4-5.9,3.5-8.4c6.9-6.8,10.7-12,11.5-15.6
		v-0.5h-0.5c-2.5,3.2-5,6.2-7.5,8.9c4.9-9.3,9.1-14,12.8-14h0.5l1,1.9v2C681.9,126.8,675.5,137.1,662.6,150.8z M720.8,139.1h-0.6
		l-1.6-4.2l2.6-2.1h0.5L720.8,139.1z M719.7,128.7h-3.6l-0.6-2.1c6.3-8.3,10.8-12.5,13.6-12.5l1,1v3.1
		C727.8,125.2,724.3,128.7,719.7,128.7z M754.2,136.7v-0.5l3.8-6.1h7.1C761.1,134,757.5,136.2,754.2,136.7z M771.7,118.8
		c0,6.3-3.8,9.4-11.4,9.4h-0.4c4.9-5.7,8.8-9.3,11.8-10.8V118.8z M792.8,152.3H790V150l6-1.9h0.5
		C796.5,148.9,795.3,150.3,792.8,152.3z M802,124.7h-0.4l-0.4-4.2l0.9-0.9V124.7z M805.2,144.5c0-2.4,1.9-5,5.5-7.8h0.4L805.2,144.5
		z"/>
</g>
</svg>
